<svg width="1896" height="1644" viewBox="0 0 1896 1644" fill="none" xmlns="http://www.w3.org/2000/svg">
<path d="M0 692.185C4.83479 695.305 48.348 714.024 52.2158 712.984C56.0837 711.944 108.299 711.944 117.969 711.944C127.639 711.944 177.921 688.025 177.921 688.025C177.921 688.025 213.698 667.227 218.533 671.386C223.368 675.546 276.551 710.904 280.418 715.064C284.286 719.224 347.139 775.38 351.973 778.5C356.808 781.62 395.487 823.218 396.454 827.377C397.421 831.537 389.685 853.376 389.685 853.376C389.685 853.376 356.808 872.095 345.205 874.175C333.601 876.255 306.526 857.536 289.121 854.416C271.716 851.296 216.599 857.536 216.599 857.536C216.599 857.536 249.476 872.095 273.65 880.415C297.824 888.734 338.436 901.213 355.841 901.213C373.247 901.213 393.553 880.415 400.321 876.255C407.09 872.095 426.429 849.216 435.132 854.416C443.835 859.616 473.81 881.454 483.48 886.654C493.15 891.854 526.026 903.293 533.762 903.293C541.498 903.293 592.746 918.892 597.581 919.932C602.416 920.972 643.028 955.29 655.599 961.53C668.169 967.77 696.211 980.249 702.013 980.249C707.815 980.249 748.427 967.769 753.262 967.769C758.097 967.769 813.213 915.773 823.85 915.773C834.486 915.773 869.297 891.854 878 888.734C886.702 885.614 940.852 862.735 947.621 860.656C954.389 858.576 1023.04 856.496 1028.85 856.496C1034.65 856.496 1090.73 890.814 1095.57 892.894C1100.4 894.974 1137.14 939.691 1139.08 944.891C1141.01 950.091 1170.02 981.289 1175.82 981.289C1181.62 981.289 1213.53 995.848 1222.24 1004.17C1230.94 1012.49 1263.82 1085.28 1266.72 1093.6C1269.62 1101.92 1268.65 1167.44 1264.78 1172.64C1260.92 1177.84 1233.84 1218.4 1233.84 1218.4C1233.84 1218.4 1210.63 1266.23 1209.67 1270.39C1208.7 1274.55 1165.19 1303.67 1165.19 1303.67C1165.19 1303.67 1120.71 1298.47 1109.1 1301.59C1097.5 1304.71 1053.02 1329.67 1053.02 1329.67L1030.78 1362.95L988.233 1406.62C988.233 1406.62 963.092 1427.42 962.125 1431.58C961.159 1435.74 950.522 1464.86 948.588 1479.42C946.654 1493.98 940.852 1560.54 940.852 1560.54C940.852 1560.54 912.81 1587.57 908.942 1587.57C905.074 1587.57 867.363 1596.93 861.561 1604.21C855.76 1611.49 843.189 1639.57 857.693 1633.33C872.198 1627.09 882.834 1611.49 898.306 1616.69C913.777 1621.89 950.522 1628.13 956.323 1626.05C962.125 1623.97 978.563 1575.1 978.563 1575.1L968.894 1564.7L958.257 1558.46L961.158 1482.54L971.795 1432.62L1025.94 1395.19L1065.59 1337.99L1104.27 1318.23L1161.32 1315.11C1161.32 1315.11 1214.5 1321.35 1218.37 1322.39C1222.24 1323.43 1276.39 1323.43 1282.19 1323.43C1287.99 1323.43 1342.14 1302.63 1345.04 1298.47C1347.94 1294.31 1391.46 1279.75 1391.46 1279.75C1391.46 1279.75 1443.67 1280.79 1447.54 1280.79C1451.41 1280.79 1502.66 1277.67 1507.49 1274.55C1512.33 1271.43 1566.48 1250.63 1566.48 1250.63L1601.29 1212.16L1620.62 1160.16L1611.92 1096.72L1595.48 1102.96V1141.44L1592.58 1203.84L1574.21 1152.88L1564.54 1112.32C1564.54 1112.32 1529.73 1066.56 1522.96 1060.32C1516.19 1054.08 1443.67 1030.17 1439.8 1028.09C1435.94 1026.01 1387.59 1010.41 1376.95 1005.21C1366.31 1000.01 1361.48 990.648 1365.35 991.688C1369.22 992.727 1432.07 1010.41 1438.84 1011.45C1445.61 1012.49 1496.85 1028.09 1504.59 1031.21C1512.33 1034.33 1575.18 1072.8 1577.11 1076.96C1579.05 1081.12 1593.55 1108.16 1593.55 1108.16L1615.79 1098.8L1576.14 1055.12C1576.14 1055.12 1539.4 1035.37 1530.7 1029.13C1521.99 1022.89 1445.6 996.887 1445.6 996.887C1445.6 996.887 1399.19 984.408 1387.59 981.288C1375.98 978.168 1366.31 991.688 1366.31 991.688L1358.58 1022.89L1411.76 1031.21C1411.76 1031.21 1454.31 1043.68 1460.11 1047.84C1465.91 1052 1480.42 1066.56 1475.58 1066.56C1470.75 1066.56 1434.97 1066.56 1434.97 1066.56C1434.97 1066.56 1394.36 1053.04 1389.52 1052C1384.69 1050.96 1339.24 1040.56 1331.5 1039.52C1323.77 1038.49 1279.29 1030.17 1272.52 1028.09C1265.75 1026.01 1247.38 1009.37 1247.38 1009.37C1247.38 1009.37 1283.16 1001.05 1290.89 1004.17C1298.63 1007.29 1354.71 1027.05 1354.71 1027.05L1359.55 1020.81L1368.25 989.608L1380.82 979.208L1330.54 977.128L1262.85 969.849L1247.38 994.807V1011.45L1265.75 1044.72L1348.91 1052C1348.91 1052 1422.4 1070.72 1428.2 1073.84C1434 1076.96 1483.32 1078 1483.32 1078C1483.32 1078 1520.06 1094.64 1524.9 1100.88C1529.73 1107.12 1558.74 1147.68 1558.74 1153.92C1558.74 1160.16 1569.38 1204.88 1569.38 1204.88C1569.38 1204.88 1558.74 1235.03 1549.07 1238.15C1539.4 1241.27 1494.92 1265.19 1494.92 1265.19C1494.92 1265.19 1404.03 1261.03 1396.29 1265.19C1388.55 1269.35 1355.68 1272.47 1349.88 1277.67C1344.07 1282.87 1315.07 1308.87 1315.07 1308.87L1305.4 1287.03C1305.4 1287.03 1316.03 1251.67 1310.23 1247.51C1304.43 1243.35 1305.4 1198.64 1305.4 1198.64L1300.56 1142.48L1298.63 1120.64L1282.19 1111.28C1282.19 1111.28 1272.52 1116.48 1274.45 1120.64C1276.39 1124.8 1277.35 1161.2 1277.35 1161.2L1272.52 1196.56C1272.52 1196.56 1253.18 1222.55 1251.25 1226.71C1249.31 1230.87 1227.07 1263.11 1227.07 1267.27C1227.07 1271.43 1229.97 1305.75 1229.97 1305.75L1271.55 1308.87C1271.55 1308.87 1294.76 1279.75 1294.76 1274.55C1294.76 1269.35 1294.76 1226.71 1293.79 1219.43C1292.83 1212.16 1295.73 1166.4 1295.73 1166.4V1138.32L1275.42 1130L1282.19 1108.16L1298.63 1125.84L1290.89 1097.76L1273.49 1070.72L1265.75 1042.64L1246.41 1003.13L1263.82 967.769L1230.94 968.809L1193.23 958.409C1193.23 958.409 1167.12 918.891 1165.19 914.732C1163.25 910.572 1141.98 871.054 1141.98 871.054L1153.58 904.332L1165.19 935.53C1165.19 935.53 1144.88 935.53 1141.01 927.211C1137.15 918.891 1112 875.214 1112 875.214L1088.8 865.854L1044.32 837.776L1009.51 834.656L991.134 848.175C991.134 848.175 961.158 848.175 957.291 845.056C953.423 841.936 928.282 836.736 928.282 836.736L906.042 846.095L866.396 877.294C866.396 877.294 833.52 891.853 826.751 893.933C819.982 896.013 789.04 917.851 784.205 916.811C779.37 915.772 753.262 919.931 753.262 919.931L763.899 938.65L746.493 955.289L719.418 962.569L655.599 943.85C655.599 943.85 604.35 904.332 600.482 904.332C596.615 904.332 552.134 890.813 537.63 890.813C523.126 890.813 486.381 877.294 482.513 874.174C478.645 871.054 464.141 842.976 462.207 837.776C460.273 832.576 432.231 803.458 425.463 800.338C418.694 797.218 375.181 760.82 375.181 760.82L331.668 715.063L291.055 678.665L321.998 714.023L346.172 745.221C346.172 745.221 322.965 741.061 317.163 735.862C311.361 730.662 290.088 709.863 290.088 709.863C290.088 709.863 258.179 680.745 254.311 676.585C250.443 672.425 213.698 649.547 213.698 649.547C213.698 649.547 226.269 644.347 233.038 646.427C239.806 648.507 282.353 668.265 282.353 668.265L295.89 682.825L269.782 654.746C269.782 654.746 242.707 637.067 238.839 634.987C234.972 632.908 178.888 636.027 178.888 636.027L162.45 653.706C162.45 653.706 144.077 670.345 133.441 676.585C122.804 682.824 78.324 696.344 70.5884 695.304C62.8527 694.264 15.4716 672.425 11.6038 674.505C7.73596 676.585 0 692.185 0 692.185Z" fill="#B46787"/>
<path d="M978.079 1576.14L991.616 1556.9C991.616 1556.9 995.968 1528.82 993.55 1524.14C991.133 1519.46 990.649 1492.42 992.1 1490.34C993.55 1488.26 1012.41 1460.7 1017.72 1457.58C1023.04 1454.46 1051.57 1436.78 1056.89 1434.7C1062.2 1432.62 1092.66 1430.02 1098.95 1430.02C1105.23 1430.02 1145.36 1433.14 1150.68 1434.18C1156 1435.22 1180.17 1441.46 1185.98 1443.54C1191.78 1445.62 1230.46 1443.02 1237.71 1443.02C1244.96 1443.02 1270.58 1438.34 1272.52 1437.82C1274.45 1437.3 1322.44 1429.34 1322.44 1429.34C1322.44 1429.34 1405.86 1424.93 1420.9 1420.52C1435.95 1416.1 1494.75 1401.4 1508.42 1396.98C1522.1 1392.57 1559.02 1367.57 1565.86 1358.75C1572.69 1349.92 1613.72 1327.86 1620.56 1311.68C1627.39 1295.51 1650.64 1241.09 1650.64 1241.09L1661.58 1179.32C1661.58 1179.32 1687.56 1132.26 1688.93 1121.96C1690.3 1111.67 1669.79 1067.55 1664.32 1060.19C1658.85 1052.84 1619.19 996.954 1619.19 996.954C1619.19 996.954 1561.75 979.305 1548.08 974.893C1534.4 970.481 1445.52 966.069 1435.95 963.128C1426.37 960.186 1360.73 930.772 1351.16 926.36C1341.59 921.948 1304.67 904.3 1280.05 901.358C1255.44 898.417 1223.99 898.417 1218.52 891.063C1213.05 883.71 1204.16 869.003 1204.16 869.003C1204.16 869.003 1205.52 847.31 1205.52 845.839C1205.52 844.37 1206.21 836.28 1206.21 836.28C1206.21 836.28 1241.08 839.221 1242.79 838.486C1244.5 837.751 1256.12 822.308 1257.83 818.999C1259.54 815.69 1265.35 795.836 1265.35 795.836L1273.9 769.731L1266.04 753.185L1263.64 753.553L1263.98 770.466C1263.98 770.466 1257.15 774.143 1256.46 775.613C1255.78 777.085 1250.31 792.894 1249.97 795.1C1249.63 797.306 1242.45 816.425 1242.1 818.631C1241.76 820.837 1230.48 824.514 1227.06 824.146C1223.64 823.779 1195.95 820.837 1194.24 822.675C1192.53 824.513 1192.87 828.925 1189.11 829.293C1185.35 829.66 1179.54 810.174 1179.54 810.174C1179.54 810.174 1192.19 788.849 1195.61 787.746C1199.03 786.643 1219.88 783.334 1223.64 782.231C1227.4 781.128 1240.4 773.039 1241.42 770.465C1242.45 767.891 1246.21 748.037 1246.21 748.037L1248.94 728.182C1248.94 728.182 1264.67 747.302 1264.67 749.508C1264.67 751.714 1265.35 756.126 1265.35 756.126L1275.27 768.994L1278 742.522L1266.38 703.548L1257.49 669.722C1257.49 669.722 1239.03 639.573 1237.66 634.425C1236.29 629.278 1215.78 596.922 1215.78 596.922C1215.78 596.922 1170.65 570.45 1159.71 565.302C1148.77 560.155 1135.1 561.626 1131.68 558.684C1128.26 555.743 1120.74 539.565 1120.74 539.565L1122.11 507.945L1139.88 472.648L1160.4 438.822L1188.43 417.497L1212.36 390.289C1212.36 390.289 1252.7 368.964 1258.86 368.964C1265.01 368.964 1312.87 338.079 1319.02 338.079C1325.18 338.079 1364.15 318.96 1366.89 317.49C1369.62 316.019 1366.89 295.429 1366.89 295.429L1347.74 299.106C1347.74 299.106 1323.13 315.284 1319.71 318.225C1316.29 321.166 1286.89 335.873 1279.37 336.609C1271.85 337.344 1246.55 351.316 1242.45 354.257C1238.34 357.198 1208.26 382.936 1208.26 382.936C1208.26 382.936 1204.16 363.081 1206.21 360.14C1208.26 357.199 1221.25 342.491 1229.45 336.609C1237.66 330.726 1251.33 310.871 1251.33 310.871L1209.63 331.461C1209.63 331.461 1187.75 360.875 1187.06 363.817C1186.38 366.758 1168.6 393.231 1165.87 396.907C1163.13 400.584 1145.35 431.469 1143.3 434.41C1141.25 437.352 1128.26 455.735 1128.26 455.735C1128.26 455.735 1131.68 417.497 1134.41 413.085C1137.15 408.673 1148.77 379.259 1151.51 375.582C1154.24 371.905 1164.5 344.698 1167.92 340.285C1171.34 335.873 1183.64 311.607 1191.85 303.518C1200.05 295.429 1208.94 285.87 1216.46 279.987C1223.98 274.104 1242.45 251.308 1249.97 246.161C1257.49 241.013 1277.32 227.777 1286.2 223.365C1295.09 218.953 1324.49 207.187 1328.6 205.716C1332.7 204.246 1376.46 193.951 1380.56 191.01C1384.66 188.068 1422.27 177.773 1429.79 175.567C1437.31 173.361 1465.35 167.478 1470.13 166.743C1474.92 166.008 1498.17 160.125 1505.69 159.389C1513.21 158.654 1535.77 157.919 1539.87 157.183C1543.98 156.448 1578.85 156.448 1589.1 155.713C1599.36 154.977 1643.12 154.977 1647.91 154.977C1652.69 154.977 1677.99 157.919 1681.41 159.389C1684.83 160.86 1694.4 169.684 1698.5 171.89C1702.6 174.096 1740.21 188.803 1747.05 188.068C1753.89 187.333 1798.33 194.686 1803.8 195.422C1809.27 196.157 1835.93 210.129 1842.09 214.541C1848.24 218.953 1880.38 245.425 1885.16 249.837C1889.95 254.25 1921.4 284.399 1926.19 291.017C1930.98 297.635 1946.02 331.461 1946.7 335.138C1947.38 338.815 1949.44 380.73 1949.44 380.73C1949.44 380.73 1959.01 399.113 1963.79 399.113C1968.58 399.113 1976.79 391.76 1976.79 391.76C1976.79 391.76 1973.37 354.993 1973.37 350.58C1973.37 346.168 1956.96 310.136 1955.59 302.783C1954.22 295.429 1922.77 263.809 1918.67 257.926C1914.57 252.043 1889.27 221.894 1882.43 216.011C1875.59 210.129 1851.66 182.185 1851.66 182.185L1846.19 152.036L1840.72 138.064L1819.53 103.503C1819.53 103.503 1810.64 89.5313 1800.38 88.0606C1790.12 86.59 1788.07 103.503 1788.07 103.503C1788.07 103.503 1815.42 117.475 1816.79 121.887C1818.16 126.299 1820.89 148.359 1820.89 148.359L1829.1 181.45C1829.1 181.45 1822.94 201.304 1818.84 196.157C1814.74 191.01 1786.02 174.096 1781.92 172.626C1777.82 171.155 1723.8 168.949 1723.8 168.949C1723.8 168.949 1682.09 148.359 1678.67 146.889C1675.26 145.418 1649.96 145.418 1641.07 143.947C1632.18 142.477 1593.89 139.535 1589.1 140.27C1584.32 141.006 1540.56 143.212 1537.14 143.212C1533.72 143.212 1481.76 147.624 1477.65 146.889C1473.55 146.153 1422.27 146.889 1422.27 146.889L1390.13 163.802L1345.01 178.509C1345.01 178.509 1311.5 196.892 1307.4 196.892C1303.3 196.892 1275.95 207.187 1271.16 211.599C1266.38 216.011 1235.61 232.924 1235.61 232.924L1217.83 253.514L1193.9 291.017C1193.9 291.017 1183.64 304.989 1180.91 307.195C1178.17 309.401 1159.03 332.932 1159.03 332.932C1159.03 332.932 1150.82 353.522 1148.77 357.199C1146.72 360.875 1136.46 386.612 1134.41 390.289C1132.36 393.966 1122.79 416.026 1121.42 419.703C1120.06 423.38 1113.9 443.97 1111.85 447.647C1109.8 451.323 1104.33 482.208 1104.33 482.208L1097.49 530.006C1097.49 530.006 1096.81 549.86 1092.02 548.389C1087.24 546.919 1079.71 522.652 1079.71 519.711C1079.71 516.769 1083.13 485.149 1083.82 480.737C1084.5 476.325 1089.29 435.881 1089.29 435.881C1089.29 435.881 1090.65 414.556 1098.18 404.261C1105.7 393.966 1115.27 374.847 1118.69 370.435C1122.11 366.023 1135.1 335.138 1139.2 331.461C1143.3 327.785 1169.97 286.605 1174.07 281.458C1178.17 276.31 1196.63 240.278 1200.74 235.866C1204.84 231.454 1239.03 199.834 1239.03 199.834L1282.1 166.743C1282.1 166.743 1319.71 152.036 1327.91 148.359C1336.12 144.683 1373.72 126.299 1379.19 121.887C1384.66 117.475 1432.53 110.856 1443.47 109.386C1454.41 107.915 1485.86 106.444 1494.75 105.709C1503.64 104.974 1550.13 103.503 1557.65 103.503C1565.17 103.503 1606.2 102.768 1614.4 100.562C1622.61 98.3555 1675.26 95.4141 1679.36 94.6787C1683.46 93.9433 1732.69 103.503 1738.16 105.709C1743.63 107.915 1777.13 125.563 1782.6 129.975C1788.07 134.388 1817.47 162.331 1817.47 162.331L1828.41 169.684L1820.21 138.8L1796.96 130.711C1796.96 130.711 1779.18 117.475 1775.08 111.592C1770.98 105.709 1749.78 93.9434 1742.95 91.002C1736.11 88.0606 1698.5 79.9717 1695.77 79.9717C1693.03 79.9717 1662.26 79.2363 1651.32 79.2363C1640.38 79.2363 1604.15 78.501 1604.15 78.501C1604.15 78.501 1576.11 79.9716 1572.01 79.9716C1567.91 79.9716 1517.31 79.9716 1517.31 79.9716C1517.31 79.9716 1469.45 84.3836 1463.29 85.119C1457.14 85.8544 1408.59 95.4138 1405.86 96.8846C1403.13 98.3552 1344.32 116.004 1344.32 116.004C1344.32 116.004 1291.67 143.947 1288.26 145.418C1284.84 146.888 1241.08 172.626 1235.61 176.302C1230.14 179.979 1189.11 219.688 1185.01 223.365C1180.91 227.041 1161.76 264.544 1159.71 268.956C1157.66 273.368 1133.05 321.166 1129.63 325.578C1126.21 329.99 1102.28 364.552 1102.28 364.552L1089.29 391.76L1072.19 451.323C1072.19 451.323 1068.77 490.297 1068.09 494.709C1067.41 499.121 1055.78 508.68 1054.42 505.739C1053.05 502.798 1057.15 468.972 1055.78 466.03C1054.42 463.089 1048.26 432.939 1049.63 429.263C1051 425.586 1057.84 399.849 1062.62 390.289C1067.41 380.73 1105.7 316.019 1105.7 316.019L1124.84 285.134L1101.59 294.694C1101.59 294.694 1084.5 328.52 1079.71 336.609C1074.93 344.697 1053.73 372.641 1050.31 378.524C1046.89 384.406 1033.9 413.82 1032.54 420.438C1031.17 427.057 1038.69 471.178 1038.69 479.266C1038.69 487.355 1039.37 513.092 1039.37 518.975C1039.37 524.858 1056.47 549.125 1056.47 549.125L1069.46 555.007C1069.46 555.007 1109.8 576.333 1114.59 576.333C1119.37 576.333 1160.4 586.628 1164.5 586.628C1168.6 586.628 1190.48 599.864 1194.58 603.54C1198.69 607.217 1217.83 636.631 1219.88 641.043C1221.93 645.455 1236.29 682.958 1236.29 686.635C1236.29 690.312 1236.29 718.255 1235.61 724.138C1234.93 730.021 1237.66 757.228 1234.93 760.17C1232.19 763.111 1220.57 772.671 1213.05 774.142C1205.52 775.613 1186.38 774.877 1182.28 773.407C1178.17 771.937 1178.17 757.229 1181.59 755.758C1185.01 754.287 1203.47 732.963 1203.47 732.963L1182.96 724.138C1182.96 724.138 1161.08 741.051 1160.4 748.405C1159.71 755.758 1159.03 774.877 1159.03 777.819C1159.03 780.76 1169.29 842.53 1169.29 842.53C1169.29 842.53 1176.12 875.62 1178.86 878.562C1181.59 881.503 1218.52 913.123 1222.62 913.858C1226.72 914.593 1252.7 923.418 1256.81 924.153C1260.91 924.888 1314.24 932.978 1318.34 932.978C1322.45 932.978 1358 949.891 1365.52 952.832C1373.04 955.773 1410.65 971.216 1417.49 973.422C1424.32 975.628 1451.67 987.393 1457.14 987.393C1462.61 987.393 1490.65 993.276 1498.17 993.276C1505.69 993.276 1537.82 1002.84 1546.71 1004.31C1555.6 1005.78 1578.85 1005.04 1586.37 1006.51C1593.89 1007.98 1610.3 1016.07 1612.35 1020.48C1614.4 1024.9 1634.23 1049.16 1634.23 1049.16L1654.74 1082.99C1654.74 1082.99 1660.21 1114.61 1659.53 1118.29C1658.85 1121.96 1655.43 1161.67 1654.74 1166.82C1654.06 1171.97 1644.49 1189.61 1642.44 1196.23C1640.39 1202.85 1632.18 1236.68 1629.45 1241.82C1626.71 1246.97 1603.46 1266.83 1603.46 1266.83L1577.48 1289.62L1574.75 1304.33L1560.39 1330.8L1514.58 1350.66L1527.57 1355.07L1537.14 1365.36L1502.27 1379.33C1502.27 1379.33 1469.45 1390.36 1458.51 1391.84C1447.57 1393.31 1403.81 1405.07 1396.29 1405.81C1388.77 1406.54 1345.01 1418.31 1338.86 1419.04C1332.7 1419.78 1297.83 1419.78 1297.83 1419.78C1297.83 1419.78 1276.63 1427.87 1270.48 1427.87C1264.33 1427.87 1238.34 1424.93 1238.34 1424.93C1238.34 1424.93 1224.67 1437.43 1219.2 1437.43C1213.73 1437.43 1189.12 1431.54 1185.7 1429.34C1182.28 1427.13 1152.88 1408.01 1152.88 1405.07C1152.88 1402.13 1189.12 1400.66 1196.64 1401.39C1204.16 1402.13 1265.69 1415.37 1268.43 1415.37C1271.16 1415.37 1323.81 1402.87 1330.65 1400.66C1337.49 1398.45 1374.41 1392.57 1380.56 1390.36C1386.72 1388.16 1418.85 1377.13 1423.64 1376.39C1428.43 1375.66 1455.09 1366.1 1461.93 1364.63C1468.77 1363.16 1496.8 1351.39 1499.54 1350.66C1502.27 1349.92 1518 1351.39 1518 1351.39L1561.07 1330.07L1562.44 1321.24L1539.88 1328.59L1518.68 1341.1L1485.18 1352.13L1442.79 1360.95C1442.79 1360.95 1409.28 1372.72 1404.5 1374.19C1399.71 1375.66 1360.74 1380.8 1360.74 1380.8C1360.74 1380.8 1338.86 1377.86 1343.64 1374.92C1348.43 1371.98 1379.2 1357.27 1381.93 1355.8C1384.67 1354.33 1416.8 1338.89 1421.59 1338.89C1426.38 1338.89 1471.5 1328.59 1474.92 1327.86C1478.34 1327.12 1520.05 1315.36 1524.83 1315.36C1529.62 1315.36 1553.55 1314.62 1553.55 1314.62L1560.39 1322.71L1563.81 1324.18L1576.12 1304.33L1577.48 1289.62L1545.35 1296.24L1495.43 1303.59L1453.72 1308.74L1403.13 1330.07L1359.37 1348.45L1329.28 1366.1L1306.04 1378.6V1395.51C1306.04 1395.51 1302.62 1405.81 1295.78 1404.34C1288.94 1402.87 1250.65 1399.92 1247.92 1399.92C1245.18 1399.92 1228.77 1388.89 1225.35 1388.89C1221.93 1388.89 1202.79 1391.84 1202.11 1388.89C1201.42 1385.95 1213.73 1372.72 1219.2 1374.19C1224.67 1375.66 1254.07 1382.28 1258.17 1385.22C1262.28 1388.16 1297.83 1387.42 1297.83 1387.42L1307.4 1388.16L1305.35 1379.33L1283.47 1375.66C1283.47 1375.66 1243.81 1369.04 1239.03 1366.83C1234.24 1364.63 1187.06 1352.86 1182.28 1351.39C1177.49 1349.92 1134.42 1349.19 1130.31 1350.66C1126.21 1352.13 1076.98 1369.78 1076.98 1369.78L1031.85 1413.16L990.146 1455.08C990.146 1455.08 971.685 1480.08 970.317 1485.96C968.95 1491.84 966.898 1529.35 966.898 1529.35C966.898 1529.35 970.317 1558.76 970.317 1562.44C970.317 1566.11 978.079 1576.14 978.079 1576.14Z" fill="#B46787"/>
<path d="M576.305 643.309C574.371 642.269 542.945 642.269 542.945 642.269C542.945 642.269 513.936 652.669 509.584 652.669C505.233 652.669 480.092 667.748 480.092 671.388C480.092 675.027 479.125 704.146 479.609 707.266C480.092 710.385 511.518 718.705 516.353 720.785C521.188 722.865 534.242 753.543 533.275 757.183C532.308 760.823 526.506 782.661 525.056 785.781C523.605 788.901 505.717 814.38 500.882 815.419C496.047 816.459 468.005 820.099 465.104 820.099C462.204 820.099 437.062 817.5 437.062 817.5L456.885 842.978L469.456 841.938C469.456 841.938 489.762 839.339 492.179 838.819C494.597 838.298 520.705 846.618 520.705 846.618C520.705 846.618 550.197 864.297 552.131 866.377C554.065 868.457 580.173 883.016 584.04 885.616C587.908 888.216 623.202 895.495 627.554 897.055C631.905 898.615 671.067 900.175 673.968 900.695C676.869 901.216 679.769 881.976 679.769 881.976C679.769 881.976 646.409 878.336 643.025 878.336C639.641 878.336 603.863 877.297 596.611 875.216C589.359 873.137 550.197 854.938 546.329 852.858C542.461 850.778 519.738 836.739 519.738 836.739L535.692 808.66C535.692 808.66 567.602 800.341 570.986 802.421C574.371 804.501 610.632 823.219 610.632 823.219L642.058 820.1C642.058 820.1 667.199 836.219 672.034 840.898C676.869 845.578 688.956 848.698 695.724 848.178C702.493 847.659 730.535 842.458 737.787 841.418C745.039 840.379 761.478 841.939 766.796 840.898C772.114 839.858 760.994 856.497 756.159 858.577C751.325 860.657 717.481 871.056 717.481 871.056L693.79 874.176L669.133 873.655C669.133 873.655 615.467 870.536 613.533 870.536C611.599 870.536 593.71 873.135 593.71 873.135L680.253 881.975L674.451 901.734L727.151 903.294L751.808 899.134C751.808 899.134 762.928 875.735 768.246 872.095C773.565 868.456 788.069 846.617 790.486 845.577C792.904 844.537 825.297 815.938 825.297 815.938L869.294 776.421C869.294 776.421 890.083 751.462 890.567 748.342C891.05 745.223 903.137 721.824 905.071 717.144C907.005 712.465 919.092 679.186 919.092 679.186L930.696 624.589C930.696 624.589 934.08 589.751 935.047 586.632C936.014 583.512 947.134 550.234 947.134 550.234L961.155 503.956C961.155 503.956 964.539 461.839 965.99 458.719C967.44 455.599 978.077 424.921 979.044 421.801C980.01 418.681 1003.22 381.763 1003.22 381.763C1003.22 381.763 1031.26 337.566 1033.68 336.526C1036.09 335.486 1058.82 307.927 1064.62 302.728C1070.42 297.528 1091.69 267.889 1091.69 265.29C1091.69 262.69 1132.31 213.293 1132.31 213.293L1112.48 215.893C1112.48 215.893 1086.86 223.692 1082.02 222.652C1077.19 221.612 1053.02 215.892 1049.15 211.213C1045.28 206.533 1012.4 180.534 1012.4 180.534C1012.4 180.534 972.758 141.537 972.758 138.417C972.758 135.297 942.783 112.938 939.882 110.338C936.981 107.739 918.125 93.1794 912.807 91.6195C907.488 90.0596 883.798 95.7792 880.897 97.3392C877.996 98.8991 855.756 112.938 851.405 112.938C847.054 112.938 823.363 110.858 819.012 108.778C814.66 106.699 800.639 95.7792 806.441 94.2193C812.243 92.6594 842.219 88.4997 848.021 86.4198C853.822 84.3399 884.765 79.6601 889.6 77.5802C894.435 75.5003 929.245 70.8206 929.245 70.8206L969.857 87.4597C969.857 87.4597 994.998 117.618 1003.22 123.858C1011.44 130.097 1052.05 154.536 1056.88 155.576C1061.72 156.616 1088.79 159.736 1096.53 159.736C1104.26 159.736 1114.42 161.296 1114.42 161.296C1114.42 161.296 1104.75 171.175 1100.4 172.215C1096.05 173.255 1074.77 177.935 1074.77 177.935C1074.77 177.935 1078.16 189.374 1082.02 190.414C1085.89 191.454 1113.93 187.294 1113.93 187.294C1113.93 187.294 1128.44 181.574 1131.82 179.494C1135.21 177.415 1171.95 159.216 1171.95 159.216C1171.95 159.216 1201.93 135.297 1206.28 130.617C1210.63 125.938 1226.59 110.858 1229.97 109.298C1233.35 107.738 1269.61 90.5796 1269.61 90.5796L1311.19 66.6609C1311.19 66.6609 1345.52 52.6217 1348.91 52.1017C1352.29 51.5817 1387.58 44.8221 1392.9 44.8221C1398.22 44.8221 1425.3 41.1823 1428.68 41.1823C1432.06 41.1823 1470.26 40.6624 1470.26 40.6624L1522.96 37.0226C1522.96 37.0226 1567.44 29.2231 1573.24 28.7031C1579.04 28.1831 1629.81 31.3029 1638.51 31.8229C1647.21 32.3429 1684.44 50.5418 1684.44 50.5418L1716.35 75.5004C1716.35 75.5004 1730.37 84.3399 1734.72 84.3399C1739.07 84.3399 1754.06 89.0197 1759.86 91.0995C1765.67 93.1794 1789.84 103.059 1789.84 103.059L1802.41 88.4997C1802.41 88.4997 1785 83.2999 1782.59 82.78C1780.17 82.26 1764.7 81.7401 1761.31 80.1802C1757.93 78.6203 1745.36 71.8606 1740.04 68.2208C1734.72 64.581 1713.93 51.5818 1708.61 45.8621C1703.3 40.1424 1680.09 23.5033 1677.67 21.9434C1675.25 20.3835 1655.92 15.1838 1651.08 14.1439C1646.25 13.104 1618.2 11.544 1618.2 11.544C1618.2 11.544 1598.38 15.1838 1591.61 13.6239C1584.84 12.064 1571.79 4.78442 1564.54 3.74448C1557.29 2.70455 1535.53 0.624602 1532.14 0.104652C1528.76 -0.415314 1512.32 1.14457 1509.9 1.66453C1507.49 2.1845 1502.65 5.8243 1496.85 7.38424C1491.05 8.94415 1477.99 10.5041 1475.58 10.5041C1473.16 10.5041 1454.79 10.5041 1452.37 10.5041C1449.95 10.5041 1438.83 16.2237 1438.83 16.2237L1426.26 25.5832L1370.66 26.1032L1347.94 27.1431L1327.15 35.9827C1327.15 35.9827 1317.48 45.3421 1313.13 45.3421C1308.78 45.3421 1279.28 53.1417 1279.28 53.1417C1279.28 53.1417 1257.53 70.3007 1253.18 73.4206C1248.83 76.5404 1236.25 78.6202 1233.35 80.7001C1230.45 82.78 1212.56 96.2993 1209.18 98.3792C1205.8 100.459 1192.74 115.538 1190.32 118.138C1187.91 120.738 1170.02 136.337 1166.15 137.377C1162.28 138.417 1131.82 139.457 1131.82 139.457L1112 144.657L1090.24 147.256L1060.75 135.817C1060.75 135.817 1030.29 119.698 1027.88 117.618C1025.46 115.538 998.383 98.899 996.449 95.2593C994.515 91.6195 971.791 61.9812 971.791 61.9812C971.791 61.9812 947.617 52.1017 943.266 50.5418C938.915 48.9819 917.158 44.3021 913.29 44.3021C909.422 44.3021 901.203 48.9819 896.852 52.6217C892.501 56.2615 882.831 58.8613 880.897 58.8613C878.963 58.8613 861.074 57.3014 854.306 57.3014C847.537 57.3014 827.231 58.3414 822.396 58.3414C817.561 58.3414 797.739 50.0218 797.739 50.0218C797.739 50.0218 778.399 49.5019 775.982 48.9819C773.565 48.4625 744.556 47.4226 744.556 47.4226L722.799 48.9825L660.914 48.4625L644.475 39.6231L637.707 28.1837L628.521 25.0638L622.719 14.1445L594.677 13.1045C594.677 13.1045 585.974 20.3842 587.908 22.464C589.842 24.5439 604.83 27.6637 607.247 29.2237C609.665 30.7836 614.5 45.8627 618.851 49.5025C623.202 53.1423 639.641 64.5817 646.409 66.6616C653.178 68.7415 672.517 70.8213 677.352 70.3013C682.187 69.7813 716.997 68.7414 721.349 69.2614C725.7 69.7813 748.424 71.8612 751.324 74.9811C754.225 78.1009 758.093 90.0602 761.961 94.7399C765.829 99.4197 772.114 106.179 780.333 111.899C788.552 117.619 804.024 128.538 808.859 130.618C813.693 132.698 835.933 137.378 845.603 137.378C855.273 137.378 869.294 130.618 874.128 129.578C878.963 128.538 906.522 122.818 908.455 122.298C910.389 121.778 929.245 125.938 933.113 127.498C936.981 129.058 956.803 143.097 959.221 145.177C961.638 147.257 984.845 167.536 987.746 170.136C990.647 172.736 1004.18 186.255 1008.54 194.054C1012.89 201.854 1027.88 222.133 1031.74 226.292C1035.61 230.452 1043.35 236.172 1047.21 236.692C1051.08 237.212 1066.55 240.852 1070.9 240.852C1075.26 240.852 1084.44 241.892 1084.44 241.892L1089.76 243.452C1089.76 243.452 1083.96 251.251 1082.02 253.331C1080.09 255.411 1063.17 272.57 1060.27 275.17C1057.37 277.77 1035.61 300.648 1034.64 303.248C1033.68 305.848 1023.04 324.047 1021.59 326.647C1020.14 329.247 1004.67 349.526 1004.67 349.526L987.263 377.604C987.263 377.604 969.374 402.563 968.407 405.162C967.44 407.762 952.452 442.08 949.551 446.76C946.65 451.44 930.696 485.238 929.245 491.478C927.795 497.717 921.026 527.356 920.059 530.475C919.092 533.595 904.588 618.87 904.588 618.87C904.588 618.87 902.654 644.349 902.17 646.949C901.687 649.549 899.753 678.147 897.819 681.267C895.885 684.387 888.149 710.385 885.732 714.025C883.314 717.665 865.909 748.863 864.459 750.943C863.008 753.023 840.768 771.742 840.768 771.742L801.606 782.661C801.606 782.661 777.432 811.259 773.565 812.819C769.697 814.379 741.655 821.139 735.853 823.219C730.051 825.299 698.142 826.859 691.373 825.299C684.604 823.739 653.178 809.7 647.376 808.66C641.574 807.62 623.202 805.54 615.95 801.38C608.698 797.22 566.152 776.421 560.35 773.302C554.548 770.182 547.779 744.183 547.296 741.064C546.812 737.944 539.077 724.944 535.209 721.825C531.341 718.705 508.618 709.865 506.2 707.785C503.783 705.705 498.464 700.506 500.398 694.786C502.332 689.066 518.287 673.467 521.188 672.427C524.089 671.388 539.56 666.708 547.779 666.708C555.999 666.708 569.053 666.708 571.47 665.148C573.887 663.588 581.14 650.589 581.14 650.589L576.305 643.309Z" fill="#B46787"/>
<path d="M759.789 883.274C759.789 883.274 771.876 877.554 773.568 876.774C775.261 875.995 791.941 863.255 793.391 862.735C794.842 862.214 809.829 851.295 813.214 849.216C816.598 847.136 832.07 834.396 834.245 832.576C836.421 830.756 853.826 813.857 853.826 813.857C853.826 813.857 854.793 819.577 854.31 820.617C853.826 821.657 850.925 830.756 849.958 832.576C848.991 834.396 840.53 846.356 838.838 847.916C837.146 849.476 820.224 859.875 819.016 861.435C817.807 862.995 804.269 874.954 802.819 875.734C801.369 876.513 784.205 888.473 784.205 888.473L764.624 897.053L747.219 899.393L759.789 883.274Z" fill="#B46787"/>
<path d="M918.695 846.575C918.695 846.575 921.088 831.868 921.088 829.662C921.088 827.456 924.507 810.176 925.533 808.337C926.558 806.499 930.319 801.351 931.687 798.41C933.055 795.469 934.08 772.673 934.08 771.202C934.08 769.731 938.182 749.877 939.208 745.832C940.233 741.788 941.259 723.404 943.31 718.625C945.361 713.845 948.096 704.653 951.515 697.299C954.934 689.946 954.25 681.857 955.618 678.916C956.986 675.974 958.352 653.914 958.352 653.914C958.352 653.914 962.113 662.738 961.771 664.944C961.429 667.15 961.43 688.475 961.43 690.681C961.43 692.887 956.643 710.536 956.643 710.536C956.643 710.536 951.515 733.332 951.515 735.905C951.515 738.479 951.515 757.598 951.515 760.907C951.515 764.216 948.78 787.38 953.566 787.747C958.353 788.115 975.104 771.937 976.814 768.996C978.523 766.055 986.728 755.76 988.779 748.774C990.83 741.788 993.907 723.404 994.591 719.728C995.274 716.051 1000.06 701.344 1001.43 698.035C1002.8 694.726 1005.19 688.843 1006.21 685.534C1007.24 682.225 1009.98 664.209 1009.98 664.209C1009.98 664.209 1007.24 645.457 1007.92 640.678C1008.61 635.898 1004.16 625.235 1002.45 619.352C1000.74 613.47 995.617 595.086 995.617 592.88C995.617 590.674 992.54 561.995 992.54 561.995C992.54 561.995 1004.16 564.936 1004.51 566.407C1004.85 567.878 1013.74 600.601 1014.08 604.278C1014.42 607.955 1022.97 642.148 1024.68 645.457C1026.39 648.766 1036.64 664.576 1041.43 666.782C1046.21 668.988 1065.02 675.239 1069.12 675.239C1073.22 675.239 1101.94 677.445 1101.94 677.445C1101.94 677.445 1105.36 691.784 1110.14 690.314C1114.93 688.842 1124.5 683.328 1127.58 680.019C1130.66 676.71 1145.01 656.12 1146.72 655.384C1148.43 654.65 1154.59 655.752 1154.59 658.326C1154.59 660.9 1148.78 673.033 1147.07 676.342C1145.36 679.651 1137.49 689.578 1135.44 692.887C1133.39 696.196 1132.02 705.388 1124.84 707.227C1117.66 709.065 1106.04 710.903 1103.31 710.168C1100.57 709.433 1085.53 709.801 1085.53 707.594C1085.53 705.388 1084.5 692.52 1081.77 691.049C1079.03 689.578 1061.26 689.947 1061.26 689.947C1061.26 689.947 1041.43 681.49 1038.69 682.961C1035.96 684.431 1031.85 690.682 1033.91 693.991C1035.96 697.3 1054.76 711.272 1055.1 712.742C1055.44 714.214 1062.28 737.377 1063.31 738.847C1064.33 740.319 1069.12 736.274 1071.85 731.494C1074.59 726.714 1086.21 708.33 1086.21 708.33L1097.49 709.433L1093.05 764.952L1097.84 782.967L1102.62 799.513L1102.96 824.515L1107.41 838.119L1114.25 813.852C1114.25 813.852 1111.85 796.939 1111.85 793.63C1111.85 790.321 1114.25 769.731 1115.96 770.834C1117.66 771.937 1125.19 792.527 1125.19 795.468C1125.19 798.41 1126.55 812.381 1127.92 813.484C1129.29 814.587 1130.66 824.147 1129.97 825.985C1129.29 827.824 1116.64 831.133 1115.96 833.339C1115.27 835.545 1113.9 850.252 1115.27 852.826C1116.64 855.399 1128.26 882.24 1128.26 882.24L1135.78 904.3L1145.02 931.508L1137.84 932.611L1101.6 873.047L1101.26 850.987C1101.26 850.987 1096.13 848.413 1095.44 846.942C1094.76 845.471 1089.29 835.544 1089.29 835.544L1077.67 823.779L1062.62 802.454C1062.62 802.454 1055.1 780.761 1054.42 778.922C1053.74 777.084 1051.68 751.347 1051.68 751.347L1046.21 738.478L1029.8 720.462L1015.45 713.476C1015.45 713.476 1005.19 732.963 1005.19 735.537C1005.19 738.11 1002.11 760.171 1003.48 764.583C1004.85 768.995 1016.47 792.526 1017.16 793.997C1017.84 795.467 1032.2 829.294 1033.56 830.397C1034.93 831.499 1046.56 841.06 1046.56 841.06L1103.31 874.886L1098.52 885.916C1098.52 885.916 1023.65 850.251 1023.65 848.045C1023.65 845.839 1015.45 830.765 1013.74 828.191C1012.03 825.617 1004.16 799.512 1004.16 796.939C1004.16 794.365 994.592 776.349 994.592 776.349L978.524 783.702C978.524 783.702 961.088 800.248 959.721 802.454C958.353 804.66 946.046 824.146 944.678 828.926C943.312 833.706 940.234 849.148 940.234 849.148L918.695 846.575Z" fill="#B46787"/>
<path d="M1351.17 302.049C1351.17 302.049 1380.57 281.459 1383.99 282.194C1387.4 282.93 1434.58 285.136 1444.16 287.342C1453.73 289.548 1535.78 296.901 1541.25 296.901C1546.72 296.901 1582.27 279.253 1590.48 277.782C1598.68 276.312 1630.82 255.722 1635.6 254.251C1640.39 252.78 1703.98 252.045 1708.08 252.045C1712.18 252.045 1767.57 266.017 1767.57 266.017C1767.57 266.017 1803.8 286.606 1806.54 289.548C1809.27 292.489 1814.06 304.99 1810.64 304.99C1807.22 304.99 1757.31 281.459 1757.31 281.459C1757.31 281.459 1740.9 277.782 1737.48 277.047C1734.06 276.311 1729.96 288.812 1742.27 290.283C1754.58 291.754 1779.87 302.049 1783.98 304.255C1788.08 306.461 1812.01 323.374 1814.74 327.786C1817.48 332.198 1842.78 361.612 1844.15 366.76C1845.51 371.907 1852.35 384.408 1847.56 385.143C1842.78 385.879 1818.16 365.289 1818.16 365.289C1818.16 365.289 1804.49 343.228 1792.86 338.081C1781.24 332.933 1755.26 312.344 1751.16 310.873C1747.05 309.402 1710.13 291.018 1710.13 291.018C1710.13 291.018 1698.51 283.665 1699.19 290.283C1699.88 296.901 1706.71 306.461 1712.87 313.814C1719.02 321.168 1734.75 350.582 1737.48 355.729C1740.22 360.877 1746.37 379.996 1747.74 382.937C1749.1 385.879 1780.56 395.438 1788.76 393.967C1796.97 392.497 1808.59 393.967 1817.48 391.761C1826.37 389.555 1845.51 385.143 1845.51 385.143C1845.51 385.143 1869.44 388.085 1872.86 388.085C1876.28 388.085 1900.9 384.408 1900.9 384.408L1881.07 356.465C1881.07 356.465 1846.88 323.374 1840.73 314.55C1834.57 305.725 1824.32 287.342 1824.32 287.342C1824.32 287.342 1839.36 285.136 1844.83 289.548C1850.3 293.96 1879.02 321.168 1879.02 321.168C1879.02 321.168 1903.63 355.729 1905 359.406C1906.37 363.083 1915.94 377.79 1915.94 377.79C1915.94 377.79 1924.83 382.937 1928.25 384.408C1931.66 385.878 1952.86 383.673 1952.86 383.673C1952.86 383.673 1978.16 385.143 1978.16 388.82C1978.16 392.497 1980.89 416.028 1980.89 416.028C1980.89 416.028 1961.07 421.911 1960.38 418.969C1959.7 416.028 1915.94 401.321 1915.94 401.321C1915.94 401.321 1874.23 403.527 1869.44 403.527C1864.66 403.527 1819.53 412.351 1819.53 412.351C1819.53 412.351 1770.3 415.292 1765.52 414.557C1760.73 413.822 1733.38 399.115 1733.38 399.115C1733.38 399.115 1719.02 371.171 1717.65 366.024C1716.28 360.877 1695.09 327.786 1692.35 325.58C1689.62 323.374 1657.48 293.225 1654.06 291.018C1650.65 288.812 1627.4 285.871 1621.24 285.871C1615.09 285.871 1589.79 294.695 1589.79 294.695C1589.79 294.695 1607.57 313.079 1610.31 314.55C1613.04 316.02 1642.44 346.905 1647.91 350.582C1653.38 354.258 1671.16 371.171 1678.68 374.848C1686.2 378.525 1703.29 383.673 1709.45 383.673C1715.6 383.673 1729.96 386.614 1729.96 386.614L1766.2 416.028L1729.28 418.234L1695.77 416.028C1695.77 416.028 1686.88 407.204 1692.35 406.468C1697.82 405.733 1729.96 403.527 1729.96 403.527L1729.28 391.761L1701.93 393.967L1671.16 387.349C1671.16 387.349 1652.01 374.848 1649.28 372.642C1646.54 370.436 1614.41 350.582 1610.31 347.64C1606.2 344.699 1570.65 316.756 1567.23 314.55C1563.81 312.344 1539.88 313.079 1533.73 312.344C1527.57 311.608 1505.01 310.138 1505.01 310.138C1505.01 310.138 1522.1 331.463 1525.52 333.669C1528.94 335.875 1552.87 357.2 1559.71 363.083C1566.55 368.965 1592.53 387.349 1602.78 391.026C1613.04 394.703 1639.71 410.88 1645.86 410.88C1652.01 410.88 1686.2 410.88 1686.2 410.88L1693.72 407.204L1764.83 415.292L1777.82 432.206L1750.47 435.147H1717.65L1665.69 432.206C1665.69 432.206 1645.86 423.381 1630.13 418.969C1614.41 414.557 1575.43 401.321 1568.6 397.644C1561.76 393.967 1524.15 361.612 1524.15 361.612L1497.49 325.58C1497.49 325.58 1472.87 316.756 1474.92 321.903C1476.98 327.051 1512.53 361.612 1514.58 364.553C1516.63 367.495 1558.34 404.998 1560.39 408.674C1562.44 412.351 1611.67 440.294 1615.09 441.03C1618.51 441.765 1667.06 461.62 1673.21 463.09C1679.36 464.561 1733.38 477.062 1738.17 477.062C1742.95 477.062 1785.34 485.151 1790.81 485.151C1796.28 485.151 1822.27 491.033 1832.52 492.504C1842.78 493.975 1877.65 501.328 1885.17 501.328C1892.69 501.328 1924.83 508.682 1928.25 508.682C1931.67 508.682 1981.58 520.448 1981.58 520.448L2032.18 549.861L2066.36 596.924L2094.4 630.015C2094.4 630.015 2113.54 681.489 2114.22 690.313C2114.91 699.137 2125.16 732.228 2125.85 737.376C2126.53 742.523 2129.27 792.527 2129.27 792.527C2129.27 792.527 2137.47 800.616 2140.21 796.203C2142.94 791.791 2144.99 752.818 2144.99 747.671C2144.99 742.523 2138.16 694.725 2139.52 688.107C2140.89 681.489 2133.37 636.633 2133.37 632.956C2133.37 629.279 2125.85 596.924 2122.43 593.247C2119.01 589.57 2094.4 571.187 2088.93 566.775C2083.46 562.362 2048.59 538.096 2041.75 533.684C2034.91 529.272 2013.71 514.565 2005.51 508.682C1997.3 502.799 1969.27 485.886 1961.75 481.474C1954.23 477.062 1946.02 471.914 1938.5 470.444C1930.98 468.973 1893.38 459.413 1893.38 459.413C1893.38 459.413 1868.08 460.149 1863.29 460.149C1858.5 460.149 1816.8 457.208 1813.38 456.472C1809.96 455.737 1779.87 453.531 1768.93 450.589C1757.99 447.648 1746.37 435.147 1746.37 435.147L1766.88 416.763L1780.56 420.44C1780.56 420.44 1781.93 432.206 1788.76 433.676C1795.6 435.147 1835.26 436.618 1842.09 438.088C1848.93 439.559 1905.68 438.824 1909.79 438.824C1913.89 438.824 1940.55 436.618 1943.97 438.824C1947.39 441.03 1993.89 471.179 1997.3 474.12C2000.72 477.062 2053.37 510.888 2056.11 513.094C2058.84 515.3 2106.7 546.92 2110.12 551.332C2113.54 555.744 2139.52 596.924 2140.89 603.542C2142.26 610.16 2155.93 668.988 2155.93 668.988C2155.93 668.988 2153.2 699.138 2154.57 702.814C2155.93 706.491 2157.98 759.436 2157.98 759.436L2157.3 833.707C2157.3 833.707 2154.57 879.298 2157.3 880.769C2160.04 882.24 2192.17 860.179 2192.17 852.826C2192.17 845.472 2191.49 819.735 2193.54 802.086C2195.59 784.438 2193.54 735.905 2192.17 729.287C2190.8 722.669 2186.7 680.754 2190.8 673.4C2194.91 666.047 2202.43 634.427 2201.06 630.75C2199.69 627.073 2176.44 595.453 2176.44 595.453C2176.44 595.453 2139.52 552.803 2136.1 549.862C2132.69 546.92 2093.03 524.124 2087.56 520.448C2082.09 516.771 2062.26 499.122 2067.73 497.652C2073.2 496.181 2090.98 495.446 2096.45 496.916C2101.92 498.387 2095.76 488.827 2090.29 484.415C2084.82 480.003 2056.79 472.65 2053.37 469.708C2049.95 466.767 2006.19 443.236 2003.46 441.765C2000.72 440.294 1974.74 425.587 1974.74 425.587L1959.01 415.293L1975.42 414.557C1975.42 414.557 1987.73 417.499 1990.47 418.969C1993.2 420.44 2025.34 431.47 2028.76 435.147C2032.17 438.824 2071.15 454.266 2075.25 455.001C2079.35 455.737 2108.75 469.708 2110.81 472.65C2112.86 475.591 2121.75 499.122 2121.75 499.122L2142.26 529.272L2171.66 560.892L2190.12 589.57C2190.12 589.57 2206.53 616.778 2207.9 619.72C2209.27 622.661 2216.1 667.517 2216.1 670.459C2216.1 673.4 2212 707.226 2212.68 713.844C2213.37 720.462 2214.73 762.377 2213.37 771.202C2212 780.026 2216.1 807.969 2214.73 814.587C2213.37 821.205 2207.9 855.031 2206.53 858.708C2205.16 862.385 2193.54 887.387 2189.44 891.799C2185.33 896.211 2169.61 913.86 2169.61 913.86C2169.61 913.86 2168.92 939.597 2168.92 944.009C2168.92 948.421 2166.87 979.306 2165.51 982.247C2164.14 985.188 2134.05 1036.66 2134.05 1036.66C2134.05 1036.66 2122.43 1063.14 2122.43 1071.22C2122.43 1079.31 2113.54 1124.17 2112.86 1128.58C2112.17 1132.99 2097.82 1163.88 2097.82 1163.88C2097.82 1163.88 2095.76 1200.65 2095.76 1204.32C2095.76 1208 2088.93 1246.97 2088.93 1250.65C2088.93 1254.33 2082.77 1312.42 2082.77 1312.42C2082.77 1312.42 2081.4 1342.57 2079.35 1348.45C2077.3 1354.33 2062.26 1394.78 2062.26 1394.78L2037.65 1440.37L2017.82 1477.14L1984.31 1503.61L1959.7 1551.41C1959.7 1551.41 1946.71 1596.26 1948.08 1602.15C1949.44 1608.03 1939.87 1643.33 1939.87 1643.33C1939.87 1643.33 1920.04 1634.5 1920.04 1625.68C1920.04 1616.85 1913.2 1572 1913.2 1567.59C1913.2 1563.17 1911.15 1513.9 1911.15 1513.9L1907.05 1486.7L1929.61 1481.55L1946.71 1488.9L1953.54 1455.08L1969.27 1416.84C1969.27 1416.84 1991.15 1367.57 1991.83 1363.16C1992.52 1358.75 2002.09 1305.8 2004.14 1302.12C2006.19 1298.45 2017.82 1246.97 2017.82 1246.97C2017.82 1246.97 2026.02 1255.8 2026.02 1258.74C2026.02 1261.68 2019.87 1287.42 2018.5 1291.09C2017.13 1294.77 2005.51 1344.04 2005.51 1347.72C2005.51 1351.39 1987.73 1412.43 1987.73 1412.43C1987.73 1412.43 1972.69 1455.81 1972.69 1460.22C1972.69 1464.64 1965.17 1491.11 1972.69 1491.84C1980.21 1492.58 2006.88 1450.66 2010.3 1446.25C2013.71 1441.84 2030.81 1412.43 2032.86 1408.01C2034.91 1403.6 2057.47 1363.16 2057.47 1363.16L2069.1 1330.07C2069.1 1330.07 2069.1 1295.51 2069.1 1287.42C2069.1 1279.33 2075.25 1209.47 2075.25 1209.47C2075.25 1209.47 2074.57 1169.76 2076.62 1164.61C2078.67 1159.47 2082.77 1127.85 2084.14 1122.7C2085.51 1117.55 2099.18 1085.93 2099.18 1085.93L2093.71 1075.64L2075.25 1107.26L2053.37 1148.44C2053.37 1148.44 2041.75 1158 2041.75 1155.05C2041.75 1152.11 2049.95 1115.35 2054.05 1109.46C2058.16 1103.58 2071.83 1074.9 2071.83 1074.9L2092.34 1046.22C2092.34 1046.22 2119.69 1016.07 2123.8 1011.66C2127.9 1007.25 2142.26 979.306 2144.99 975.629C2147.73 971.952 2149.09 935.185 2148.41 927.831C2147.73 920.478 2145.68 894.74 2145.68 894.74L2138.84 874.886C2138.84 874.886 2122.43 838.118 2121.75 832.971C2121.06 827.824 2108.07 774.143 2108.07 774.143C2108.07 774.143 2103.97 729.287 2100.55 720.462C2097.13 711.638 2082.09 662.37 2081.4 659.429C2080.72 656.487 2056.11 608.689 2054.05 605.013C2052 601.336 2019.18 564.569 2016.45 560.892C2013.71 557.215 1975.42 535.89 1970.64 534.419C1965.85 532.948 1927.56 530.007 1922.09 530.007C1916.62 530.007 1848.25 527.801 1844.15 525.595C1840.04 523.389 1788.08 513.829 1788.08 513.829L1719.02 500.593L1645.18 472.65L1585.01 456.472C1585.01 456.472 1547.4 441.03 1543.3 434.412C1539.2 427.793 1511.16 398.379 1504.32 388.085C1497.49 377.79 1480.39 358.671 1476.29 352.052C1472.19 345.434 1459.2 317.491 1459.2 317.491C1459.2 317.491 1433.22 305.725 1429.8 304.99C1426.38 304.255 1397.66 302.049 1397.66 302.049C1397.66 302.049 1421.59 327.05 1425.01 329.992C1428.43 332.933 1467.4 363.818 1472.19 369.701C1476.97 375.584 1507.06 415.292 1507.06 415.292C1507.06 415.292 1511.85 427.058 1507.74 424.852C1503.64 422.646 1465.35 393.232 1463.98 390.291C1462.62 387.349 1442.79 366.759 1442.79 366.759L1455.78 405.733C1455.78 405.733 1488.6 440.294 1490.65 443.971C1492.7 447.648 1535.09 492.504 1539.88 498.387C1544.67 504.27 1574.75 527.801 1582.27 530.742C1589.79 533.684 1632.18 532.213 1643.12 534.419C1654.06 536.625 1688.94 535.89 1700.56 538.096C1712.18 540.302 1746.37 543.979 1753.21 544.714C1760.04 545.449 1787.39 551.332 1787.39 551.332C1787.39 551.332 1777.14 557.95 1774.4 558.686C1771.67 559.421 1727.22 555.744 1727.22 555.744C1727.22 555.744 1726.54 564.568 1736.8 566.039C1747.05 567.51 1770.98 572.657 1781.24 577.805C1791.5 582.952 1813.38 593.247 1824.32 598.395C1835.26 603.542 1877.65 613.837 1883.8 616.778C1889.96 619.72 1930.98 630.75 1935.08 631.485C1939.19 632.22 1983.63 652.81 1983.63 652.81L2030.81 684.43L2063.63 723.404C2063.63 723.404 2084.14 764.583 2084.14 768.26C2084.14 771.937 2090.98 846.207 2090.98 846.207C2090.98 846.207 2099.18 887.387 2099.18 891.064C2099.18 894.74 2099.18 932.979 2094.4 939.597C2089.61 946.215 2071.15 986.659 2069.1 991.807C2067.05 996.954 2050.64 1028.57 2048.58 1032.25C2046.53 1035.93 2030.81 1091.81 2026.7 1094.76C2022.6 1097.7 2004.82 1148.44 2004.82 1152.11C2004.82 1155.79 1997.99 1219.03 1997.99 1222.71C1997.99 1226.38 1997.99 1269.77 1997.99 1272.71C1997.99 1275.65 1974.06 1338.16 1974.06 1338.16C1974.06 1338.16 1971.32 1374.19 1969.27 1378.6C1967.22 1383.01 1948.76 1420.52 1948.76 1420.52C1948.76 1420.52 1935.08 1452.14 1935.08 1455.08C1935.08 1458.02 1935.77 1483.02 1935.77 1483.02L1907.73 1488.17L1905 1464.64L1907.73 1417.57L1928.93 1426.4C1928.93 1426.4 1941.92 1419.78 1941.92 1416.1C1941.92 1412.43 1947.39 1382.28 1949.44 1377.86C1951.49 1373.45 1960.38 1327.86 1963.12 1323.45C1965.85 1319.04 1972 1281.53 1972.69 1277.12C1973.37 1272.71 1978.84 1188.88 1978.84 1188.88L1986.36 1156.52C1986.36 1156.52 2000.72 1118.29 2002.77 1115.35C2004.82 1112.4 2019.18 1072.7 2020.55 1069.75C2021.92 1066.81 2062.94 971.217 2062.94 971.217C2062.94 971.217 2081.4 945.48 2081.4 939.597C2081.4 933.714 2084.14 902.094 2084.14 902.094V817.529C2084.14 817.529 2077.98 796.203 2077.3 792.527C2076.62 788.85 2062.26 755.759 2060.89 752.818C2059.52 749.877 2053.37 745.464 2053.37 745.464L2060.89 799.88L2066.36 853.561C2066.36 853.561 2061.58 903.565 2061.58 906.506C2061.58 909.447 2047.9 950.627 2044.48 956.51C2041.06 962.393 2029.44 997.689 2026.02 1003.57C2022.6 1009.45 2004.82 1044.02 2001.41 1049.9C1997.99 1055.78 1983.63 1096.23 1983.63 1096.23L1959.7 1149.91C1959.7 1149.91 1953.54 1186.67 1951.49 1190.35C1949.44 1194.03 1930.98 1227.85 1930.3 1233C1929.61 1238.15 1923.46 1286.68 1923.46 1291.83C1923.46 1296.98 1924.14 1340.36 1923.46 1346.98C1922.78 1353.6 1920.04 1398.45 1920.04 1398.45L1928.93 1430.81L1905.68 1423.46C1905.68 1423.46 1902.26 1393.31 1902.26 1388.16C1902.26 1383.01 1894.06 1356.54 1894.06 1352.13C1894.06 1347.72 1895.43 1294.77 1895.43 1288.15C1895.43 1281.53 1889.27 1233.74 1889.27 1233.74L1900.9 1209.47L1924.14 1219.76L1936.45 1166.08C1936.45 1166.08 1952.18 1133.73 1954.91 1130.05C1957.65 1126.38 1973.37 1088.87 1975.42 1082.99C1977.48 1077.11 1988.41 1047.69 1992.52 1041.07C1996.62 1034.46 2004.82 1005.78 2007.56 999.896C2010.29 994.013 2039.01 932.243 2039.01 932.243C2039.01 932.243 2046.53 892.534 2047.9 888.858C2049.27 885.181 2046.53 849.149 2049.27 842.531C2052 835.912 2052 796.939 2051.32 793.262C2050.64 789.585 2038.33 759.436 2036.28 754.289C2034.23 749.141 2010.98 712.374 2010.98 712.374L1988.42 688.842L2000.72 727.081C2000.72 727.081 2018.5 771.937 2018.5 776.349C2018.5 780.761 2023.97 818.264 2023.97 824.147C2023.97 830.03 2009.61 866.797 2009.61 866.797C2009.61 866.797 2005.51 905.771 2005.51 910.918C2005.51 916.065 1983.63 951.362 1980.89 955.774C1978.16 960.187 1939.87 1024.16 1939.87 1024.16L1916.62 1066.81C1916.62 1066.81 1905.68 1094.02 1905.68 1097.7C1905.68 1101.37 1894.74 1139.61 1900.9 1144.76C1907.05 1149.91 1920.04 1132.26 1920.04 1127.85C1920.04 1123.43 1931.66 1098.43 1935.77 1094.02C1939.87 1089.61 1950.13 1060.93 1953.54 1056.52C1956.96 1052.11 1973.37 1007.25 1976.11 1005.04C1978.84 1002.84 1990.47 980.776 1991.83 977.835C1993.2 974.893 1997.3 980.041 1997.3 980.041C1997.3 980.041 1992.52 1007.98 1988.42 1011.66C1984.31 1015.34 1968.59 1055.78 1968.59 1055.78C1968.59 1055.78 1956.28 1081.52 1954.23 1085.93C1952.18 1090.34 1927.56 1130.05 1926.88 1132.99C1926.2 1135.94 1917.31 1165.35 1917.31 1169.03C1917.31 1172.7 1921.41 1199.91 1921.41 1199.91L1928.93 1210.21L1926.19 1229.32L1887.91 1233.74L1882.44 1199.18L1870.13 1155.05L1868.76 1120.49C1868.76 1120.49 1886.54 1097.7 1886.54 1094.02C1886.54 1090.34 1901.58 1059.46 1902.26 1056.52C1902.95 1053.58 1923.46 1019.75 1923.46 1019.75L1941.24 985.188C1941.24 985.188 1963.12 955.039 1968.59 949.892C1974.06 944.744 1985.68 924.154 1987.73 918.272C1989.78 912.389 1988.42 886.651 1988.42 886.651L1969.95 909.447C1969.95 909.447 1946.02 941.803 1943.29 945.479C1940.55 949.156 1909.79 963.863 1909.79 963.863C1909.79 963.863 1885.85 968.275 1883.12 974.158C1880.38 980.041 1861.24 1018.28 1855.77 1027.1C1850.3 1035.93 1833.89 1066.81 1837.31 1070.49C1840.73 1074.17 1874.23 1092.55 1876.97 1094.76C1879.7 1096.96 1889.96 1106.52 1889.96 1106.52L1861.24 1121.96L1826.37 1089.61L1803.12 1082.25L1820.9 1057.99C1820.9 1057.99 1842.78 1021.22 1844.15 1018.28C1845.51 1015.34 1860.56 974.893 1864.66 968.275C1868.76 961.657 1885.17 946.215 1890.64 943.273C1896.11 940.332 1923.46 931.508 1929.61 927.096C1935.77 922.684 1958.33 902.829 1961.75 894.005C1965.17 885.181 1981.58 849.149 1983.63 843.266C1985.68 837.383 1996.62 810.175 1997.3 807.234C1997.99 804.292 1990.47 772.672 1990.47 772.672C1990.47 772.672 1979.53 769.731 1979.53 773.407C1979.53 777.084 1969.27 801.351 1968.59 806.498C1967.9 811.645 1959.7 838.118 1953.54 843.266C1947.39 848.413 1933.03 879.298 1933.03 879.298C1933.03 879.298 1918.67 894.74 1917.31 897.681C1915.94 900.623 1907.73 908.712 1907.73 902.829C1907.73 896.946 1919.36 871.209 1919.36 871.209L1899.53 880.768C1899.53 880.768 1873.55 907.241 1870.81 910.182C1868.08 913.124 1833.21 946.95 1833.21 946.95C1833.21 946.95 1812.69 985.188 1809.96 996.218C1807.22 1007.25 1799.02 1029.31 1799.02 1038.13C1799.02 1046.96 1807.22 1065.34 1807.22 1065.34L1820.22 1069.75L1804.49 1083.72L1783.98 1074.9C1783.98 1074.9 1783.98 1048.43 1783.98 1043.28C1783.98 1038.13 1788.08 997.689 1788.08 991.071C1788.08 984.453 1781.93 960.921 1781.93 960.921L1762.1 918.271C1762.1 918.271 1743.64 874.885 1743.64 871.209C1743.64 867.532 1710.13 819.734 1710.13 819.734C1710.13 819.734 1682.78 776.349 1680.05 773.407C1677.31 770.466 1651.33 748.405 1651.33 748.405C1651.33 748.405 1631.5 728.551 1630.13 722.668C1628.77 716.785 1602.78 676.341 1602.78 676.341C1602.78 676.341 1583.64 638.103 1581.59 634.426C1579.54 630.749 1574.07 609.424 1574.07 609.424L1580.9 602.806L1594.58 630.014C1594.58 630.014 1606.2 661.634 1608.94 663.84C1611.67 666.046 1625.35 693.99 1628.08 698.402C1630.82 702.814 1650.65 735.169 1650.65 735.169C1650.65 735.169 1673.89 752.818 1677.31 755.024C1680.73 757.23 1702.61 776.349 1706.03 781.496C1709.45 786.644 1730.64 814.587 1734.06 818.264C1737.48 821.94 1756.63 849.883 1758.68 855.031C1760.73 860.178 1779.87 901.358 1779.87 901.358C1779.87 901.358 1791.5 930.772 1791.5 933.714C1791.5 936.655 1799.02 952.097 1801.75 952.097C1804.49 952.097 1812.01 939.596 1812.01 939.596C1812.01 939.596 1812.01 899.887 1812.69 895.475C1813.38 891.063 1809.27 857.972 1809.27 854.296C1809.27 850.619 1803.12 823.411 1801.75 819.734C1800.39 816.057 1787.39 793.997 1784.66 782.967C1781.92 771.936 1762.1 741.787 1760.05 738.846C1757.99 735.904 1707.4 684.43 1707.4 684.43C1707.4 684.43 1684.83 662.37 1677.31 655.016C1669.79 647.662 1636.29 621.925 1636.29 621.925C1636.29 621.925 1614.41 607.954 1610.99 606.483C1607.57 605.012 1596.63 604.277 1596.63 604.277L1594.58 630.749L1596.63 593.247L1607.57 585.893L1632.87 603.542C1632.87 603.542 1669.79 634.426 1672.53 635.897C1675.26 637.367 1706.71 662.37 1706.71 662.37C1706.71 662.37 1732.01 691.048 1734.75 693.254C1737.48 695.46 1765.52 732.963 1765.52 732.963L1789.45 770.466C1789.45 770.466 1804.49 802.086 1806.54 805.763C1808.59 809.439 1831.15 843.266 1831.15 843.266L1860.56 871.209C1860.56 871.209 1876.97 879.298 1881.07 877.827C1885.17 876.356 1905.68 863.12 1909.78 859.443C1913.89 855.766 1929.61 835.912 1935.08 830.029C1940.55 824.146 1960.38 787.379 1960.38 787.379C1960.38 787.379 1965.85 769.73 1967.9 762.377C1969.95 755.024 1969.95 724.874 1969.95 724.874L1958.33 679.283C1958.33 679.283 1931.66 659.428 1928.25 656.487C1924.83 653.545 1883.12 630.749 1883.12 630.749L1839.36 628.543C1839.36 628.543 1807.91 621.925 1801.07 617.513C1794.23 613.101 1760.05 590.305 1757.31 588.835C1754.58 587.364 1714.92 575.598 1714.92 575.598C1714.92 575.598 1669.11 563.833 1666.37 563.097C1663.64 562.362 1629.45 560.156 1626.03 559.421C1622.61 558.685 1584.32 547.655 1584.32 547.655C1584.32 547.655 1567.23 543.978 1569.28 548.39C1571.33 552.802 1591.84 570.451 1591.84 570.451L1609.62 588.099L1596.63 593.247L1597.31 633.691L1581.59 604.277L1574.07 610.16L1569.96 594.717L1558.34 562.362L1538.51 537.36C1538.51 537.36 1509.79 505.74 1508.43 502.799C1507.06 499.857 1476.29 468.973 1474.92 464.561C1473.56 460.148 1443.47 410.145 1443.47 410.145L1421.59 375.583L1400.4 345.434L1377.15 316.755L1357.32 318.961L1342.96 324.109L1351.17 302.049Z" fill="#B46787"/>
<path d="M1604.83 509.417L1585.69 496.181L1563.81 483.68C1563.81 483.68 1544.66 481.474 1545.35 484.415C1546.03 487.357 1552.87 496.916 1556.29 499.122C1559.7 501.328 1573.38 511.623 1578.17 512.359C1582.95 513.094 1595.94 515.3 1595.94 515.3L1604.83 509.417Z" fill="#B46787"/>
<path d="M1470.82 232.191C1470.82 232.191 1463.98 246.898 1467.4 249.84C1470.82 252.781 1489.97 254.987 1497.49 255.723C1505.01 256.458 1543.98 257.929 1551.5 257.929C1559.02 257.929 1585.69 250.575 1591.16 248.369C1596.63 246.163 1618.51 235.868 1623.3 235.133C1628.08 234.397 1650.65 236.603 1657.48 232.927C1664.32 229.25 1673.89 218.22 1676.63 216.014C1679.36 213.808 1693.72 207.925 1697.82 207.925C1701.93 207.925 1690.3 195.424 1690.3 195.424L1661.59 192.482L1643.12 209.396L1613.72 216.014C1613.72 216.014 1592.53 222.632 1589.11 224.838C1585.69 227.044 1569.96 235.133 1564.49 235.133C1559.02 235.133 1531.67 232.927 1527.57 232.191C1523.47 231.456 1488.6 230.721 1488.6 230.721L1470.82 232.191Z" fill="#B46787"/>
<path d="M1329.96 275.576L1306.03 284.4L1278.68 297.637L1260.91 320.432L1265.69 331.463L1277.32 324.109L1286.89 319.697L1299.2 307.932L1317.66 300.578L1329.96 275.576Z" fill="#B46787"/>
</svg>
